<?xml version="1.0" encoding="UTF-8"?>
<svg width="240" height="120" viewBox="0 0 240 120" xmlns="http://www.w3.org/2000/svg">
  <defs>
    <linearGradient id="grad" x1="0%" y1="0%" x2="100%" y2="0%">
      <stop offset="0%" style="stop-color:#4CAF50;stop-opacity:1"/>
      <stop offset="100%" style="stop-color:#2196F3;stop-opacity:1"/>
    </linearGradient>
  </defs>
  <rect x="0" y="0" width="240" height="120" rx="12" ry="12" fill="#0b132b"/>
  <g transform="translate(16,16)">
    <rect x="0" y="0" width="208" height="88" rx="8" ry="8" fill="#1c2541" stroke="#3a506b" stroke-width="1"/>
    <!-- Grid lines -->
    <g stroke="#3a506b" stroke-width="0.5" opacity="0.5">
      <line x1="0" y1="22" x2="208" y2="22"/>
      <line x1="0" y1="44" x2="208" y2="44"/>
      <line x1="0" y1="66" x2="208" y2="66"/>
    </g>
    <!-- Time series polyline -->
    <polyline fill="none" stroke="url(#grad)" stroke-width="3" points="
      0,70 16,60 32,68 48,50 64,52 80,40 96,35 112,48 128,30 144,36 160,22 176,28 192,18 208,26"/>
    <!-- Dots -->
    <g fill="#ffcc00">
      <circle cx="160" cy="22" r="3"/>
      <circle cx="192" cy="18" r="3"/>
    </g>
  </g>
</svg>
